<?xml version="1.0" standalone="no"?>
<!DOCTYPE svg PUBLIC "-//W3C//DTD SVG 1.1//EN" "http://www.w3.org/Graphics/SVG/1.1/DTD/svg11.dtd" >
<svg xmlns="http://www.w3.org/2000/svg" xmlns:xlink="http://www.w3.org/1999/xlink" version="1.1">
<metadata>
Created by FontForge 20170731 at Tue Mar 15 08:51:33 2022
 By Aleksey,,,
copyright missing
</metadata>
<defs>
<font id="BlueberrySans-Medium" horiz-adv-x="1228" >
  <font-face 
    font-family="Blueberry Sans Medium"
    font-weight="500"
    font-stretch="normal"
    units-per-em="2048"
    panose-1="0 0 0 0 0 0 0 0 0 0"
    ascent="1638"
    descent="-410"
    x-height="1024"
    cap-height="1434"
    bbox="-119 -512 2253 1874"
    underline-thickness="102"
    underline-position="-358"
    unicode-range="U+000D-2215"
  />
<missing-glyph horiz-adv-x="1075" 
d="M883 1638v-2150h-682v2150h682zM358 -365h359v72h-219l149 100h70v72h-359v-72h152l-152 -100v-72zM358 -72h359v244h-359v-244zM358 301h359v244h-215v-121h71v49h72v-100h-215v172h-72v-244zM358 592h359v215h-72v-143h-287v-72zM358 715h215v149h144v72h-359v-72h144
v-80h-144v-69zM358 993h359v74h-144v150h-215v-224zM358 1274h359v69h-144v80h144v72h-357v-72h142v-80h-144v-69zM430 0v100h215v-100h-215zM430 1067v78h72v-78h-72z" />
    <glyph glyph-name=".notdef" horiz-adv-x="1075" 
d="M883 1638v-2150h-682v2150h682zM358 -365h359v72h-219l149 100h70v72h-359v-72h152l-152 -100v-72zM358 -72h359v244h-359v-244zM358 301h359v244h-215v-121h71v49h72v-100h-215v172h-72v-244zM358 592h359v215h-72v-143h-287v-72zM358 715h215v149h144v72h-359v-72h144
v-80h-144v-69zM358 993h359v74h-144v150h-215v-224zM358 1274h359v69h-144v80h144v72h-357v-72h142v-80h-144v-69zM430 0v100h215v-100h-215zM430 1067v78h72v-78h-72z" />
    <glyph glyph-name=".null" 
 />
    <glyph glyph-name="nonmarkingreturn" horiz-adv-x="682" 
 />
    <glyph glyph-name="CR" unicode="&#xd;" 
 />
    <glyph glyph-name="space" unicode=" " horiz-adv-x="495" 
 />
    <glyph glyph-name="exclam" unicode="!" horiz-adv-x="645" 
d="M211 444l-12 990h247l-14 -990h-221zM180 113q0 59 42 101t100 42t100.5 -42t42.5 -101t-42.5 -101.5t-100.5 -42.5t-100 42.5t-42 101.5z" />
    <glyph glyph-name="quotedbl" unicode="&#x22;" horiz-adv-x="763" 
d="M123 1466h217l-23 -505h-172zM424 1466h217l-23 -505h-172z" />
    <glyph glyph-name="numbersign" unicode="#" horiz-adv-x="1290" 
d="M451 1434h170l-64 -410h279l63 410h172l-63 -410h262l-27 -158h-262l-51 -325h264l-23 -158h-266l-59 -383h-172l59 383h-278l-60 -383h-170l60 383h-265l23 158h266l51 325h-268l27 158h268zM479 541h279l51 325h-279z" />
    <glyph glyph-name="dollar" unicode="$" horiz-adv-x="1292" 
d="M268 391q51 -83 133 -134.5t181 -63.5l6 438q-214 50 -332.5 159t-118.5 257q0 184 121 293t340 126l2 140h137l-2 -142q138 -13 260 -86.5t207 -193.5l-188 -127q-52 72 -125.5 119.5t-155.5 62.5l-6 -412q223 -50 347 -159.5t124 -257.5q0 -196 -127 -311.5
t-356 -129.5l-2 -180h-135l2 182q-155 15 -286 90t-214 197zM379 1042q0 -55 55.5 -102t155.5 -78l6 383q-103 -12 -160 -65t-57 -138zM719 193q114 14 176.5 66.5t62.5 137.5q0 66 -61 119.5t-174 85.5z" />
    <glyph glyph-name="percent" unicode="%" horiz-adv-x="1640" 
d="M1208 1434h236l-1024 -1434h-230zM90 1118q0 152 91.5 250t234.5 98q144 0 235.5 -97.5t91.5 -250.5t-91.5 -250.5t-235.5 -97.5q-143 0 -234.5 98t-91.5 250zM250 1118q0 -77 46.5 -126.5t119.5 -49.5q75 0 121.5 49.5t46.5 126.5t-46.5 126.5t-121.5 49.5
q-73 0 -119.5 -49.5t-46.5 -126.5zM897 317q0 153 92 251t236 98t235.5 -98t91.5 -251q0 -154 -91.5 -252t-235.5 -98q-145 0 -236.5 98t-91.5 252zM1057 317q0 -77 46.5 -126.5t121.5 -49.5q73 0 120.5 49.5t47.5 126.5q0 75 -47.5 125t-120.5 50q-74 0 -121 -49.5
t-47 -125.5z" />
    <glyph glyph-name="ampersand" unicode="&#x26;" horiz-adv-x="1302" 
d="M434 565q-123 -73 -123 -200q0 -91 61.5 -148t159.5 -57q138 0 252 63q-157 194 -274 357l-16 22zM96 367q0 105 55.5 195.5t145.5 144.5l82 49q-91 123 -131.5 201t-40.5 157q0 153 101 251.5t257 98.5q185 0 299.5 -102t114.5 -264q0 -114 -78.5 -204.5t-247.5 -195.5
q172 -230 273 -358q96 124 96 283l205 -2q0 -264 -172 -445q119 -148 147 -176h-235l-56 68q-171 -99 -391 -99q-186 0 -305 111.5t-119 286.5zM414 1100q0 -48 29.5 -104t95.5 -146q124 73 179.5 124.5t55.5 119.5q0 81 -51 131.5t-137 50.5q-73 0 -122.5 -50t-49.5 -126z
" />
    <glyph glyph-name="quotesingle" unicode="'" horiz-adv-x="462" 
d="M123 1466h217l-23 -505h-172z" />
    <glyph glyph-name="parenleft" unicode="(" horiz-adv-x="755" 
d="M332 717q0 -450 340 -922h-226q-155 204 -247.5 438t-92.5 484q0 474 340 921h226q-340 -472 -340 -921z" />
    <glyph glyph-name="parenright" unicode=")" horiz-adv-x="755" 
d="M424 717q0 449 -340 921h225q340 -447 340 -921q0 -250 -92.5 -484t-247.5 -438h-225q340 472 340 922z" />
    <glyph glyph-name="asterisk" unicode="*" horiz-adv-x="993" 
d="M410 1466h174l-19 -274l256 100l53 -164l-258 -65l172 -209l-141 -102l-145 231l-152 -238l-141 105l176 211l-266 67l53 168l256 -104z" />
    <glyph glyph-name="plus" unicode="+" horiz-adv-x="1126" 
d="M94 705h377v374h186v-374h375v-189h-375v-375h-186v375h-377v189z" />
    <glyph glyph-name="comma" unicode="," horiz-adv-x="499" 
d="M190 227h240l-182 -463h-178z" />
    <glyph glyph-name="hyphen" unicode="-" horiz-adv-x="843" 
d="M115 709h614v-197h-614v197z" />
    <glyph glyph-name="period" unicode="." horiz-adv-x="473" 
d="M238 -29q-59 0 -101.5 42t-42.5 100t42.5 100.5t101.5 42.5q58 0 99.5 -42t41.5 -101t-41.5 -100.5t-99.5 -41.5z" />
    <glyph glyph-name="slash" unicode="/" horiz-adv-x="847" 
d="M31 -172l565 1702h221l-561 -1702h-225z" />
    <glyph glyph-name="zero" unicode="0" horiz-adv-x="1329" 
d="M668 -33q-168 0 -301 95.5t-207 267t-74 387.5t73.5 387t205.5 266.5t299 95.5q169 0 301.5 -95.5t206 -266t73.5 -387.5q0 -216 -73.5 -387.5t-205 -267t-298.5 -95.5zM324 717q0 -233 96.5 -383t247.5 -150q152 0 250 150t98 383q0 235 -98.5 384.5t-253.5 149.5
q-149 0 -244.5 -149.5t-95.5 -384.5z" />
    <glyph glyph-name="one" unicode="1" horiz-adv-x="790" 
d="M391 0l4 1198l-202 -123l-105 168l322 191h211l-3 -1434h-227z" />
    <glyph glyph-name="two" unicode="2" horiz-adv-x="1142" 
d="M98 207l260 233q110 100 181 170.5t133.5 144.5t91.5 135t29 116q0 107 -73.5 177t-197.5 70q-75 0 -145.5 -38t-108.5 -101l-196 113q66 104 191 170.5t255 66.5q223 0 361.5 -126.5t138.5 -329.5q0 -153 -123 -319t-377 -386l-121 -106h639v-197h-938v207z" />
    <glyph glyph-name="three" unicode="3" horiz-adv-x="1130" 
d="M279 313q20 -28 37 -46t49 -44t75.5 -39.5t96.5 -13.5q117 0 189.5 69.5t72.5 176.5q0 122 -100 191t-296 65v176q177 -3 273 53.5t96 161.5q0 87 -67.5 147t-174.5 60q-144 0 -225 -113l-178 109q64 91 171.5 144.5t242.5 53.5q198 0 325 -107.5t127 -271.5
q0 -108 -58 -190t-165 -133q122 -55 190 -150.5t68 -220.5q0 -126 -65.5 -223.5t-173.5 -148t-238 -50.5q-148 0 -269 70.5t-186 169.5z" />
    <glyph glyph-name="four" unicode="4" horiz-adv-x="1255" 
d="M733 0v311h-647v203l629 920h237v-928h230v-195h-230v-311h-219zM311 506h422v624z" />
    <glyph glyph-name="five" unicode="5" horiz-adv-x="1167" 
d="M315 317q109 -139 271 -139q121 0 197.5 73.5t76.5 190.5q0 121 -73 197t-189 76q-67 0 -131.5 -29.5t-99.5 -73.5l-222 50l80 772h791v-209h-584l-51 -404q137 93 266 90q188 -3 311 -130.5t123 -325.5q0 -214 -138 -351t-355 -137q-135 0 -265.5 62t-205.5 172z" />
    <glyph glyph-name="six" unicode="6" horiz-adv-x="1175" 
d="M625 -33q-114 0 -204.5 36.5t-150.5 99t-100 151.5t-57 189t-17 216q0 132 19 248t62.5 219.5t109 177.5t163 117t218.5 43q106 0 210.5 -33.5t186.5 -93.5l-125 -163q-118 88 -262 88q-177 0 -275 -142t-104 -422q117 195 352 195q201 0 332 -132t131 -331
q0 -202 -135.5 -332.5t-353.5 -130.5zM354 436q0 -116 76.5 -191t194.5 -75q117 0 192.5 74.5t75.5 191.5q0 116 -75.5 192.5t-192.5 76.5t-194 -76.5t-77 -192.5z" />
    <glyph glyph-name="seven" unicode="7" horiz-adv-x="1118" 
d="M88 1434h985v-189l-667 -1245h-250l669 1229h-737v205z" />
    <glyph glyph-name="eight" unicode="8" horiz-adv-x="1247" 
d="M623 -33q-244 0 -385.5 111t-141.5 291q0 128 66.5 226t189.5 150q-100 50 -154.5 135t-54.5 193q0 174 130 283.5t350 109.5q219 0 350 -109.5t131 -283.5q0 -108 -55.5 -193t-155.5 -135q123 -52 189.5 -150t66.5 -226q0 -180 -141.5 -291t-384.5 -111zM336 397
q0 -100 80.5 -163.5t206.5 -63.5t207 63.5t81 163.5q0 106 -81 174t-207 68t-206.5 -68t-80.5 -174zM373 1047q0 -92 70 -151.5t180 -59.5t180.5 59.5t70.5 151.5q0 98 -70.5 160.5t-180.5 62.5t-180 -62.5t-70 -160.5z" />
    <glyph glyph-name="nine" unicode="9" horiz-adv-x="1175" 
d="M551 1466q114 0 204.5 -36.5t150.5 -99t99.5 -151.5t56.5 -189t17 -216q0 -132 -19 -248t-62.5 -219.5t-108.5 -177.5t-162.5 -117t-218.5 -43q-106 0 -210.5 33.5t-186.5 93.5l125 164q118 -88 262 -88q177 0 275 141.5t104 421.5q-116 -194 -353 -194q-201 0 -332 132
t-131 331q0 201 136 331.5t354 130.5zM283 997q0 -116 75.5 -192t192.5 -76t193.5 76t76.5 192q0 117 -76.5 192t-193.5 75t-192.5 -75t-75.5 -192z" />
    <glyph glyph-name="colon" unicode=":" horiz-adv-x="575" 
d="M289 -4q-59 0 -101.5 42.5t-42.5 100.5q0 59 42.5 101.5t101.5 42.5q58 0 100.5 -42.5t42.5 -101.5t-42 -101t-101 -42zM143 883q0 58 42.5 100.5t101.5 42.5t101 -42t42 -101q0 -57 -42.5 -99.5t-100.5 -42.5t-101 42.5t-43 99.5z" />
    <glyph glyph-name="semicolon" unicode=";" horiz-adv-x="583" 
d="M283 737q-59 0 -101.5 42.5t-42.5 101.5q0 58 42.5 100.5t101.5 42.5t101 -42t42 -101t-42.5 -101.5t-100.5 -42.5zM78 -236l121 463h239l-182 -463h-178z" />
    <glyph glyph-name="less" unicode="&#x3c;" horiz-adv-x="1067" 
d="M899 391v-211l-737 332v197l737 335v-208l-518 -226z" />
    <glyph glyph-name="equal" unicode="=" horiz-adv-x="1243" 
d="M211 907h819v-186h-819v186zM211 311v187h819v-187h-819z" />
    <glyph glyph-name="greater" unicode="&#x3e;" horiz-adv-x="1067" 
d="M168 831v211l737 -331v-197l-737 -336v209l518 225z" />
    <glyph glyph-name="question" unicode="?" horiz-adv-x="985" 
d="M453 -29q-60 0 -102 41t-42 101t42 101.5t102 41.5t101.5 -41.5t41.5 -101.5t-41.5 -101t-101.5 -41zM74 1219q54 109 163.5 178t227.5 69q204 0 335.5 -128.5t131.5 -327.5q0 -178 -100.5 -297t-266.5 -144l-2 -157h-219l-6 288v35l131 8q112 3 181 75t69 192
q0 106 -71 173.5t-183 67.5q-61 0 -118 -34t-83 -87z" />
    <glyph glyph-name="at" unicode="@" horiz-adv-x="2037" 
d="M1059 -432q-211 0 -392 70.5t-308.5 195t-200 301t-72.5 381.5t72.5 381.5t200 301t308.5 195t392 70.5q193 0 359 -70.5t283.5 -195t184 -301t66.5 -381.5q0 -240 -114 -393.5t-294 -153.5q-110 -1 -180.5 60t-79.5 164q-61 -77 -148.5 -119.5t-191.5 -42.5
q-193 0 -315.5 136.5t-122.5 350.5t122.5 350t315.5 136q202 0 330 -150l-2 127h198v-750q0 -50 24.5 -76t64.5 -26q95 0 155 109t60 278q0 168 -53.5 312.5t-147 246.5t-226.5 159.5t-288 57.5q-172 0 -320 -57.5t-252.5 -159.5t-163.5 -246.5t-59 -312.5t59 -312.5
t163.5 -246.5t252.5 -159.5t320 -57.5q77 0 163 21t146 55l94 -140q-87 -48 -199 -78t-204 -30zM723 518q0 -130 80 -213.5t205 -83.5q107 0 181.5 68.5t88.5 177.5v108q-19 106 -95 171t-184 65q-122 0 -199 -82t-77 -211z" />
    <glyph glyph-name="A" unicode="A" horiz-adv-x="1413" 
d="M16 0l574 1434h233l574 -1434h-240l-141 362h-619l-141 -362h-240zM477 565h459l-229 590z" />
    <glyph glyph-name="B" unicode="B" horiz-adv-x="1265" 
d="M180 0v1434h230l241 2q224 0 353 -104.5t129 -297.5q0 -182 -168 -293q215 -107 215 -340q0 -190 -125.5 -295.5t-341.5 -105.5h-533zM410 209h284q115 0 181.5 56.5t66.5 152.5q0 102 -75 160t-205 57h-191l-61 -4v-422zM410 831h262q103 0 163 54.5t60 150.5
q0 98 -67.5 153.5t-186.5 53.5h-231v-412z" />
    <glyph glyph-name="C" unicode="C" horiz-adv-x="1488" 
d="M1202 981q-55 115 -170.5 188.5t-240.5 73.5q-205 0 -336 -147.5t-131 -378.5q0 -233 133 -381t340 -148q124 0 239 78t172 201l217 -88q-78 -181 -254 -296.5t-374 -115.5q-206 0 -368.5 95.5t-252.5 266.5t-90 388q0 216 90 387t252 266.5t367 95.5q196 0 371 -111
t253 -284z" />
    <glyph glyph-name="D" unicode="D" horiz-adv-x="1419" 
d="M616 223q202 0 340 142.5t138 351.5t-137.5 351t-340.5 142h-198v-987h198zM180 0v1434h436q155 0 288 -53t227.5 -147t148 -227.5t53.5 -289.5q0 -155 -53.5 -288.5t-148 -227.5t-227.5 -147.5t-288 -53.5h-436z" />
    <glyph glyph-name="E" unicode="E" horiz-adv-x="1177" 
d="M180 1434h889v-215h-659v-381h585v-215h-585v-408h665v-215h-895v1434z" />
    <glyph glyph-name="F" unicode="F" horiz-adv-x="1134" 
d="M180 1434h889v-215h-659v-406h565v-215h-565v-598h-230v1434z" />
    <glyph glyph-name="G" unicode="G" horiz-adv-x="1536" 
d="M86 715q0 214 94.5 383.5t264 263.5t384.5 94q163 0 321 -80.5t243 -206.5l-183 -137q-55 89 -161.5 145t-219.5 56q-221 0 -363 -145.5t-142 -372.5q0 -230 145 -376t373 -146q169 0 289 105t124 269h-346v183h564v-160q-4 -178 -87 -318.5t-228.5 -219.5t-328.5 -79
q-161 0 -299.5 55.5t-236 152.5t-152.5 235t-55 299z" />
    <glyph glyph-name="H" unicode="H" horiz-adv-x="1554" 
d="M180 1434h238v-588h719v588h237v-1434h-237v633h-719v-633h-238v1434z" />
    <glyph glyph-name="I" unicode="I" horiz-adv-x="598" 
d="M180 1434h238v-1434h-238v1434z" />
    <glyph glyph-name="J" unicode="J" horiz-adv-x="1105" 
d="M948 432q0 -142 -69.5 -248t-182.5 -158.5t-252 -52.5q-140 0 -249 71t-168 189l180 119q46 -74 101 -116.5t138 -42.5q51 0 96.5 17.5t83.5 53t60.5 97.5t22.5 145v928h239v-1002z" />
    <glyph glyph-name="K" unicode="K" horiz-adv-x="1323" 
d="M180 0v1434h234v-598l567 598h303l-610 -643l635 -791h-293l-498 625l-104 -111v-514h-234z" />
    <glyph glyph-name="L" unicode="L" horiz-adv-x="1077" 
d="M180 1434h238v-1219h629v-215h-867v1434z" />
    <glyph glyph-name="M" unicode="M" horiz-adv-x="1759" 
d="M418 0h-238v1434h238v-4l16 4l447 -660l444 660l16 -4v4h240v-1434h-240v1063l-460 -678l-463 682v-1067z" />
    <glyph glyph-name="N" unicode="N" horiz-adv-x="1581" 
d="M418 0h-238v1434h242l741 -1047v1047h238v-1434h-238l-745 1053v-1053z" />
    <glyph glyph-name="O" unicode="O" horiz-adv-x="1576" 
d="M793 -33q-153 0 -284.5 55.5t-224.5 154t-145.5 238t-52.5 302.5q0 217 88.5 387.5t249 266t364.5 95.5t364.5 -95.5t249.5 -266t89 -387.5q0 -163 -51.5 -302.5t-143 -238t-221.5 -154t-282 -55.5zM324 717q0 -230 132 -378.5t337 -148.5q202 0 331 148t129 379
q0 230 -130.5 378t-334.5 148t-334 -148t-130 -378z" />
    <glyph glyph-name="P" unicode="P" horiz-adv-x="1202" 
d="M180 0v1434l500 2q210 0 343.5 -131.5t133.5 -337.5t-125 -337.5t-321 -131.5h-301v-498h-230zM410 713h292q103 0 168.5 71t65.5 183q0 113 -73.5 183.5t-190.5 70.5h-262v-508z" />
    <glyph glyph-name="Q" unicode="Q" horiz-adv-x="1601" 
d="M803 -33q-155 0 -288.5 55.5t-227.5 154t-147.5 238t-53.5 302.5q0 217 90 387.5t252.5 266t368.5 95.5t368.5 -95.5t253 -266.5t90.5 -387q0 -294 -159 -496l166 -170l-148 -147l-174 176q-171 -113 -391 -113zM324 717q0 -231 134.5 -379t344.5 -148q122 0 225 58
l-188 190l153 144l187 -191q90 139 90 326q0 230 -133 378t-340 148t-340 -148t-133 -378z" />
    <glyph glyph-name="R" unicode="R" horiz-adv-x="1316" 
d="M180 0v1434l500 2q210 0 343.5 -126t133.5 -323q0 -136 -71 -242t-193 -159l360 -586h-264l-321 539h-4h-254v-539h-230zM410 754h280q104 0 174 66.5t70 168.5q0 105 -73 172t-189 66h-262v-473z" />
    <glyph glyph-name="S" unicode="S" horiz-adv-x="1263" 
d="M270 362q125 -182 357 -182q140 0 219.5 57t79.5 148q0 85 -79.5 147.5t-240.5 92.5q-243 44 -362 144.5t-119 277.5q0 198 141 308.5t389 110.5q159 0 291.5 -58t218.5 -171l-188 -125q-45 64 -141.5 104.5t-198.5 40.5q-117 0 -189.5 -61.5t-72.5 -151.5
q0 -42 18 -75.5t48.5 -56.5t81 -42.5t103.5 -32.5t128 -26q199 -37 309.5 -150t110.5 -258q0 -195 -136 -315.5t-399 -120.5q-183 0 -329 71t-230 198z" />
    <glyph glyph-name="T" unicode="T" horiz-adv-x="1167" 
d="M29 1434h1110v-215h-457v-1219h-240v1219h-413v215z" />
    <glyph glyph-name="U" unicode="U" horiz-adv-x="1361" 
d="M119 518v916h237v-916q0 -151 89.5 -243.5t234.5 -92.5q146 0 236 92.5t90 243.5v916h239v-916q0 -250 -155.5 -400.5t-413.5 -150.5q-252 0 -404.5 150.5t-152.5 400.5z" />
    <glyph glyph-name="V" unicode="V" horiz-adv-x="1423" 
d="M16 1434h246l449 -1164l448 1164h248l-563 -1434h-264z" />
    <glyph glyph-name="W" unicode="W" horiz-adv-x="1988" 
d="M442 0l-426 1434h234l319 -1094l308 1094h233l307 -1084l322 1084h233l-432 -1434h-250l-297 1075l-301 -1075h-250z" />
    <glyph glyph-name="X" unicode="X" horiz-adv-x="1335" 
d="M1315 1434l-514 -709l514 -725h-289l-358 532l-359 -532h-289l512 725l-512 709h285l363 -519l362 519h285z" />
    <glyph glyph-name="Y" unicode="Y" horiz-adv-x="1296" 
d="M20 1434h265l364 -594l363 594h264l-508 -824v-610h-240v610z" />
    <glyph glyph-name="Z" unicode="Z" horiz-adv-x="1302" 
d="M100 1210v224h1108v-224l-807 -987h801v-223h-1108v223l807 987h-801z" />
    <glyph glyph-name="bracketleft" unicode="[" horiz-adv-x="704" 
d="M565 1638h-385v-1843h385v207h-182v1432h182v204z" />
    <glyph glyph-name="backslash" unicode="\" horiz-adv-x="847" 
d="M817 -172h-225l-561 1702h221z" />
    <glyph glyph-name="bracketright" unicode="]" horiz-adv-x="704" 
d="M139 1638v-204h183v-1432h-183v-207h385v1843h-385z" />
    <glyph glyph-name="asciicircum" unicode="^" horiz-adv-x="1163" 
d="M360 764h-204l317 670h213l322 -670h-203l-225 455z" />
    <glyph glyph-name="underscore" unicode="_" horiz-adv-x="892" 
d="M37 0h819v-197h-819v197z" />
    <glyph glyph-name="grave" unicode="`" horiz-adv-x="1093" 
d="M352 1436l107 125l309 -271l-88 -106z" />
    <glyph glyph-name="a" unicode="a" horiz-adv-x="1093" 
d="M487 -33q-191 0 -297 85t-106 237q0 158 105.5 242.5t297.5 84.5h281q-14 123 -72.5 183.5t-173.5 60.5q-153 0 -278 -110l-127 133q73 84 181 129t230 45q224 0 342.5 -126.5t118.5 -361.5v-569h-203l-2 100q-105 -133 -297 -133zM307 301q0 -77 52 -120.5t145 -43.5
q126 0 198 76.5t72 206.5h2v35h-221q-125 0 -186.5 -40t-61.5 -114z" />
    <glyph glyph-name="b" unicode="b" horiz-adv-x="1232" 
d="M350 0h-213v1434h225v-562q55 87 138.5 135t185.5 48q209 0 336 -148.5t127 -394.5q0 -247 -127 -396t-336 -149q-104 0 -188 48.5t-138 138.5zM362 512q0 -148 75.5 -242t193.5 -94q125 0 205.5 94t81.5 242q-1 148 -80.5 241t-204.5 93q-120 0 -195.5 -93t-75.5 -241z
" />
    <glyph glyph-name="c" unicode="c" horiz-adv-x="1132" 
d="M866 688q-37 74 -104.5 116t-151.5 42q-133 0 -217 -93t-84 -241t85 -241t220 -93q85 0 152.5 46t103.5 126l209 -80q-59 -141 -182 -222t-283 -81q-233 0 -381.5 153t-148.5 392t147 392t379 153q159 0 281.5 -76.5t183.5 -210.5z" />
    <glyph glyph-name="d" unicode="d" horiz-adv-x="1232" 
d="M881 0l-9 154q-54 -90 -138 -138.5t-187 -48.5q-209 0 -336 149t-127 396q0 246 127 394.5t336 148.5q102 0 185 -48t138 -135v562h226v-1434h-215zM315 512q1 -148 81.5 -242t205.5 -94q118 0 193 94t75 242t-75 241t-195 93q-125 0 -204.5 -93t-80.5 -241z" />
    <glyph glyph-name="e" unicode="e" horiz-adv-x="1155" 
d="M305 473q11 -139 97 -226t216 -87q83 0 156 49.5t113 130.5l180 -98q-65 -126 -191 -200.5t-276 -74.5q-227 0 -371.5 153t-144.5 392t145.5 392t374.5 153q218 0 352 -158t134 -426h-785zM319 647h541q-27 110 -93 173t-167 63q-106 0 -179.5 -63.5t-101.5 -172.5z" />
    <glyph glyph-name="f" unicode="f" horiz-adv-x="784" 
d="M53 1024h178v113q0 164 81 250t243 86q99 0 227 -64l-84 -168q-71 35 -118 35q-63 0 -93 -40.5t-30 -129.5v-82h270v-184h-270v-840h-226v840h-178v184z" />
    <glyph glyph-name="g" unicode="g" horiz-adv-x="1241" 
d="M547 12q-209 0 -336 140t-127 370q0 243 126 388t337 145q107 0 192.5 -50t139.5 -143v162h225v-977q0 -222 -149.5 -367t-381.5 -145q-169 0 -299.5 79.5t-183.5 209.5l191 90q37 -88 113.5 -137t178.5 -49q134 0 220 95t86 240v134q-54 -89 -140 -137t-192 -48z
M315 528q1 -141 81.5 -231t205.5 -90q118 0 193 90t75 231t-75 230.5t-195 89.5q-124 0 -203.5 -89.5t-81.5 -230.5z" />
    <glyph glyph-name="h" unicode="h" horiz-adv-x="1175" 
d="M139 0l-2 1466h225v-573q105 164 306 164q189 0 290.5 -118.5t100.5 -352.5v-586h-225v524q0 91 -16.5 154.5t-48 98t-70.5 49.5t-91 16q-110 1 -172.5 -68.5t-70.5 -200.5v-573h-226z" />
    <glyph glyph-name="i" unicode="i" horiz-adv-x="516" 
d="M143 0l2 1024h226l-2 -1024h-226zM123 1352q0 56 39.5 95.5t95.5 39.5t95.5 -39.5t39.5 -95.5q0 -57 -39.5 -97.5t-95.5 -40.5t-95.5 40.5t-39.5 97.5z" />
    <glyph glyph-name="j" unicode="j" horiz-adv-x="575" 
d="M90 -440q-100 0 -209 59l88 186q83 -36 121 -36q115 0 115 149v1106h225v-1116q0 -170 -87 -259t-253 -89zM182 1352q0 56 40 95.5t95 39.5q57 0 97.5 -39.5t40.5 -95.5q0 -57 -40.5 -97.5t-97.5 -40.5q-56 0 -95.5 40.5t-39.5 97.5z" />
    <glyph glyph-name="k" unicode="k" horiz-adv-x="1079" 
d="M137 0v1434h225v-811l359 401h287l-385 -434l448 -590h-268l-328 424l-113 -127v-297h-225z" />
    <glyph glyph-name="l" unicode="l" horiz-adv-x="487" 
d="M137 0l2 1520h211l-2 -1520h-211z" />
    <glyph glyph-name="m" unicode="m" horiz-adv-x="1849" 
d="M137 0v1024h211l10 -137q104 170 310 170q269 0 354 -232q47 113 134.5 172.5t205.5 59.5q189 0 290.5 -118.5t100.5 -352.5v-586h-225v524q0 91 -16 154.5t-47.5 98t-70.5 49.5t-91 16q-107 1 -170 -65t-74 -191v-586h-225v524q0 91 -16.5 154.5t-48 98t-70.5 49.5
t-91 16q-118 1 -182 -78.5t-64 -228.5v-535h-225z" />
    <glyph glyph-name="n" unicode="n" horiz-adv-x="1163" 
d="M137 0v1024h211l10 -137q104 170 310 170q189 0 290.5 -118.5t100.5 -352.5v-586h-225v524q0 91 -16.5 154.5t-48 98t-70.5 49.5t-91 16q-118 1 -182 -78.5t-64 -228.5v-535h-225z" />
    <glyph glyph-name="o" unicode="o" horiz-adv-x="1204" 
d="M606 -33q-232 0 -377 152.5t-145 392.5t143.5 392.5t374.5 152.5t374.5 -152.5t143.5 -392.5t-143 -392.5t-371 -152.5zM309 512q0 -148 83 -242t214 -94q126 0 207.5 94.5t81.5 241.5q0 149 -82.5 243.5t-210.5 94.5q-129 0 -211 -94.5t-82 -243.5z" />
    <glyph glyph-name="p" unicode="p" horiz-adv-x="1232" 
d="M350 1024l10 -156q54 90 138 138.5t188 48.5q209 0 336 -148.5t127 -394.5q0 -247 -127 -396t-336 -149q-102 0 -185.5 48t-138.5 135v-560h-225v1434h213zM362 512q0 -148 75.5 -242t193.5 -94q125 0 205.5 94t81.5 242q-1 148 -80.5 241t-204.5 93q-120 0 -195.5 -93
t-75.5 -241z" />
    <glyph glyph-name="q" unicode="q" horiz-adv-x="1232" 
d="M883 1024h213v-1434h-226v560q-55 -87 -138 -135t-185 -48q-209 0 -336 149t-127 396q0 246 127 394.5t336 148.5q103 0 187 -48.5t138 -138.5zM315 512q1 -148 81.5 -242t205.5 -94q118 0 193 94t75 242t-75 241t-195 93q-125 0 -204.5 -93t-80.5 -241z" />
    <glyph glyph-name="r" unicode="r" horiz-adv-x="753" 
d="M137 0v1024h225v-164q61 92 158 140.5t205 48.5l-2 -215q-97 0 -175 -25.5t-130.5 -87t-52.5 -152.5h-3v-569h-225z" />
    <glyph glyph-name="s" unicode="s" horiz-adv-x="989" 
d="M254 293q39 -66 104.5 -106t139.5 -40q93 0 145.5 35t52.5 97q0 55 -60 95.5t-165 59.5q-166 30 -259 110.5t-93 188.5q0 152 105 237t294 85q119 0 223.5 -53.5t173.5 -149.5l-172 -109q-43 61 -104.5 95t-130.5 34q-83 0 -129.5 -35t-46.5 -98q0 -43 65 -80.5
t181 -62.5q161 -34 251.5 -117.5t90.5 -197.5q0 -148 -108 -231t-300 -83q-129 0 -240 57t-178 158z" />
    <glyph glyph-name="t" unicode="t" horiz-adv-x="808" 
d="M555 -33q-161 0 -246.5 85.5t-85.5 242.5v545h-170v184h170v319h226v-319h278v-184h-278v-506q0 -172 137 -172q50 0 127 43l78 -174q-132 -64 -236 -64z" />
    <glyph glyph-name="u" unicode="u" horiz-adv-x="1163" 
d="M1028 1024v-1024h-213l-8 137q-104 -170 -309 -170q-189 0 -291 118.5t-101 352.5v586h226v-524q0 -91 16 -154.5t47.5 -98t70.5 -49.5t91 -16q118 -1 182 78.5t64 228.5v535h225z" />
    <glyph glyph-name="v" unicode="v" horiz-adv-x="1142" 
d="M20 1024h234l317 -770l316 770h235l-432 -1024h-237z" />
    <glyph glyph-name="w" unicode="w" horiz-adv-x="1667" 
d="M369 0l-349 1024h230l235 -725l238 725h223l232 -717l239 717h230l-351 -1024h-223l-239 745l-240 -745h-225z" />
    <glyph glyph-name="x" unicode="x" horiz-adv-x="1034" 
d="M41 1024h266l211 -313l209 313h266l-350 -496l375 -528h-268l-232 348l-233 -348h-271l381 530z" />
    <glyph glyph-name="y" unicode="y" horiz-adv-x="1140" 
d="M23 1024h231l315 -780l318 780h233l-479 -1135q-24 -57 -42 -94t-42.5 -78t-49.5 -66t-58 -46.5t-74.5 -31t-91.5 -9.5q-85 0 -211 65l90 189q82 -37 119 -37q45 0 72.5 23t49.5 71l58 125h-6z" />
    <glyph glyph-name="z" unicode="z" horiz-adv-x="1015" 
d="M90 836v188h832v-166l-553 -670h557v-188h-836v168l553 668h-553z" />
    <glyph glyph-name="braceleft" unicode="{" horiz-adv-x="798" 
d="M311 1049q0 146 10.5 243t34.5 167.5t68.5 107.5t106.5 54t155 17v-186q-70 -2 -105.5 -37t-50 -118t-14.5 -246q0 -154 -38.5 -229.5t-137.5 -104.5q100 -29 138 -104t38 -230q0 -162 15 -245.5t50.5 -118.5t104.5 -37v-187q-93 0 -155 17t-106.5 54.5t-68.5 108
t-34.5 167.5t-10.5 243q0 149 -38.5 197.5t-157.5 48.5v172q119 0 157.5 48.5t38.5 197.5z" />
    <glyph glyph-name="bar" unicode="|" horiz-adv-x="546" 
d="M180 -451l6 2069h183l-11 -2069h-178z" />
    <glyph glyph-name="braceright" unicode="}" horiz-adv-x="798" 
d="M487 1049q0 -149 39 -197.5t158 -48.5v-172q-119 0 -158 -48.5t-39 -197.5q0 -122 -6.5 -208t-23.5 -154t-43.5 -110t-70 -69.5t-98 -38t-132.5 -10.5v187q69 2 104.5 37t50.5 118.5t15 245.5q0 155 38 230t138 104q-99 29 -137.5 104.5t-38.5 229.5q0 163 -14.5 246
t-50 118t-105.5 37v186q78 0 132.5 -10.5t98 -38t70 -69t43.5 -110t23.5 -154t6.5 -207.5z" />
    <glyph glyph-name="asciitilde" unicode="~" horiz-adv-x="1331" 
d="M762 651q6 -45 42.5 -74.5t88.5 -29.5q60 0 97.5 47t37.5 119h189q0 -154 -91 -252.5t-233 -98.5q-124 0 -215.5 81.5t-108.5 207.5q-6 46 -42.5 75.5t-88.5 29.5q-60 0 -97.5 -46t-37.5 -120h-188q0 154 90.5 252t232.5 98q124 0 215.5 -81.5t108.5 -207.5z" />
    <glyph glyph-name="uni00A0" unicode="&#xa0;" horiz-adv-x="495" 
 />
    <glyph glyph-name="exclamdown" unicode="&#xa1;" 
 />
    <glyph glyph-name="cent" unicode="&#xa2;" 
 />
    <glyph glyph-name="sterling" unicode="&#xa3;" 
 />
    <glyph glyph-name="currency" unicode="&#xa4;" 
 />
    <glyph glyph-name="yen" unicode="&#xa5;" 
 />
    <glyph glyph-name="brokenbar" unicode="&#xa6;" 
 />
    <glyph glyph-name="section" unicode="&#xa7;" 
 />
    <glyph glyph-name="dieresis" unicode="&#xa8;" 
 />
    <glyph glyph-name="copyright" unicode="&#xa9;" 
 />
    <glyph glyph-name="ordfeminine" unicode="&#xaa;" horiz-adv-x="1093" 
d="M487 -33q-191 0 -297 85t-106 237q0 158 105.5 242.5t297.5 84.5h281q-14 123 -72.5 183.5t-173.5 60.5q-153 0 -278 -110l-127 133q73 84 181 129t230 45q224 0 342.5 -126.5t118.5 -361.5v-569h-203l-2 100q-105 -133 -297 -133zM307 301q0 -77 52 -120.5t145 -43.5
q126 0 198 76.5t72 206.5h2v35h-221q-125 0 -186.5 -40t-61.5 -114z" />
    <glyph glyph-name="guillemotleft" unicode="&#xab;" 
 />
    <glyph glyph-name="logicalnot" unicode="&#xac;" 
 />
    <glyph glyph-name="uni00AD" unicode="&#xad;" horiz-adv-x="843" 
d="M115 709h614v-197h-614v197z" />
    <glyph glyph-name="registered" unicode="&#xae;" 
 />
    <glyph glyph-name="macron" unicode="&#xaf;" 
 />
    <glyph glyph-name="degree" unicode="&#xb0;" horiz-adv-x="765" 
d="M383 881q-121 0 -209 87.5t-88 209.5q0 119 87.5 202.5t209.5 83.5q121 0 210 -83.5t89 -202.5q0 -122 -89 -209.5t-210 -87.5zM260 1178q0 -56 36 -97t87 -41t87 41t36 97q0 53 -36 91t-87 38t-87 -38t-36 -91z" />
    <glyph glyph-name="plusminus" unicode="&#xb1;" 
 />
    <glyph glyph-name="uni00B2" unicode="&#xb2;" horiz-adv-x="1142" 
d="M98 207l260 233q110 100 181 170.5t133.5 144.5t91.5 135t29 116q0 107 -73.5 177t-197.5 70q-75 0 -145.5 -38t-108.5 -101l-196 113q66 104 191 170.5t255 66.5q223 0 361.5 -126.5t138.5 -329.5q0 -153 -123 -319t-377 -386l-121 -106h639v-197h-938v207z" />
    <glyph glyph-name="uni00B3" unicode="&#xb3;" horiz-adv-x="1130" 
d="M279 313q20 -28 37 -46t49 -44t75.5 -39.5t96.5 -13.5q117 0 189.5 69.5t72.5 176.5q0 122 -100 191t-296 65v176q177 -3 273 53.5t96 161.5q0 87 -67.5 147t-174.5 60q-144 0 -225 -113l-178 109q64 91 171.5 144.5t242.5 53.5q198 0 325 -107.5t127 -271.5
q0 -108 -58 -190t-165 -133q122 -55 190 -150.5t68 -220.5q0 -126 -65.5 -223.5t-173.5 -148t-238 -50.5q-148 0 -269 70.5t-186 169.5z" />
    <glyph glyph-name="acute" unicode="&#xb4;" 
 />
    <glyph glyph-name="uni00B5" unicode="&#xb5;" 
 />
    <glyph glyph-name="paragraph" unicode="&#xb6;" 
 />
    <glyph glyph-name="periodcentered" unicode="&#xb7;" horiz-adv-x="528" 
d="M264 539q-59 0 -101 41.5t-42 99.5t42.5 100.5t100.5 42.5t100 -42t42 -101q0 -58 -41.5 -99.5t-100.5 -41.5z" />
    <glyph glyph-name="cedilla" unicode="&#xb8;" 
 />
    <glyph glyph-name="uni00B9" unicode="&#xb9;" horiz-adv-x="790" 
d="M391 0l4 1198l-202 -123l-105 168l322 191h211l-3 -1434h-227z" />
    <glyph glyph-name="ordmasculine" unicode="&#xba;" horiz-adv-x="1204" 
d="M606 -33q-232 0 -377 152.5t-145 392.5t143.5 392.5t374.5 152.5t374.5 -152.5t143.5 -392.5t-143 -392.5t-371 -152.5zM309 512q0 -148 83 -242t214 -94q126 0 207.5 94.5t81.5 241.5q0 149 -82.5 243.5t-210.5 94.5q-129 0 -211 -94.5t-82 -243.5z" />
    <glyph glyph-name="guillemotright" unicode="&#xbb;" 
 />
    <glyph glyph-name="onequarter" unicode="&#xbc;" 
 />
    <glyph glyph-name="onehalf" unicode="&#xbd;" 
 />
    <glyph glyph-name="threequarters" unicode="&#xbe;" 
 />
    <glyph glyph-name="questiondown" unicode="&#xbf;" 
 />
    <glyph glyph-name="Agrave" unicode="&#xc0;" horiz-adv-x="1447" 
d="M16 0l574 1434h233l574 -1434h-240l-141 362h-619l-141 -362h-240zM477 565h459l-229 590zM522 1731l107 124l309 -270l-88 -106z" />
    <glyph glyph-name="Aacute" unicode="&#xc1;" 
 />
    <glyph glyph-name="Acircumflex" unicode="&#xc2;" 
 />
    <glyph glyph-name="Atilde" unicode="&#xc3;" 
 />
    <glyph glyph-name="Adieresis" unicode="&#xc4;" 
 />
    <glyph glyph-name="Aring" unicode="&#xc5;" 
 />
    <glyph glyph-name="AE" unicode="&#xc6;" 
 />
    <glyph glyph-name="Ccedilla" unicode="&#xc7;" 
 />
    <glyph glyph-name="Egrave" unicode="&#xc8;" horiz-adv-x="1177" 
d="M180 1434h889v-215h-659v-381h585v-215h-585v-408h665v-215h-895v1434zM414 1731l106 124l309 -270l-88 -106z" />
    <glyph glyph-name="Eacute" unicode="&#xc9;" 
 />
    <glyph glyph-name="Ecircumflex" unicode="&#xca;" 
 />
    <glyph glyph-name="Edieresis" unicode="&#xcb;" 
 />
    <glyph glyph-name="Igrave" unicode="&#xcc;" horiz-adv-x="598" 
d="M180 1434h238v-1434h-238v1434zM100 1726l107 125l309 -270l-88 -106z" />
    <glyph glyph-name="Iacute" unicode="&#xcd;" 
 />
    <glyph glyph-name="Icircumflex" unicode="&#xce;" 
 />
    <glyph glyph-name="Idieresis" unicode="&#xcf;" 
 />
    <glyph glyph-name="Eth" unicode="&#xd0;" 
 />
    <glyph glyph-name="Ntilde" unicode="&#xd1;" 
 />
    <glyph glyph-name="Ograve" unicode="&#xd2;" horiz-adv-x="1593" 
d="M793 -33q-153 0 -284.5 55.5t-224.5 154t-145.5 238t-52.5 302.5q0 217 88.5 387.5t249 266t364.5 95.5t364.5 -95.5t249.5 -266t89 -387.5q0 -163 -51.5 -302.5t-143 -238t-221.5 -154t-282 -55.5zM324 717q0 -230 132 -378.5t337 -148.5q202 0 331 148t129 379
q0 230 -130.5 378t-334.5 148t-334 -148t-130 -378zM627 1749l106 125l309 -270l-88 -107z" />
    <glyph glyph-name="Oacute" unicode="&#xd3;" 
 />
    <glyph glyph-name="Ocircumflex" unicode="&#xd4;" 
 />
    <glyph glyph-name="Otilde" unicode="&#xd5;" 
 />
    <glyph glyph-name="Odieresis" unicode="&#xd6;" 
 />
    <glyph glyph-name="multiply" unicode="&#xd7;" 
 />
    <glyph glyph-name="Oslash" unicode="&#xd8;" 
 />
    <glyph glyph-name="Ugrave" unicode="&#xd9;" horiz-adv-x="1361" 
d="M119 518v916h237v-916q0 -151 89.5 -243.5t234.5 -92.5q146 0 236 92.5t90 243.5v916h239v-916q0 -250 -155.5 -400.5t-413.5 -150.5q-252 0 -404.5 150.5t-152.5 400.5zM481 1718l107 125l309 -270l-88 -107z" />
    <glyph glyph-name="Uacute" unicode="&#xda;" 
 />
    <glyph glyph-name="Ucircumflex" unicode="&#xdb;" 
 />
    <glyph glyph-name="Udieresis" unicode="&#xdc;" 
 />
    <glyph glyph-name="Yacute" unicode="&#xdd;" 
 />
    <glyph glyph-name="Thorn" unicode="&#xde;" 
 />
    <glyph glyph-name="germandbls" unicode="&#xdf;" 
 />
    <glyph glyph-name="agrave" unicode="&#xe0;" horiz-adv-x="1087" 
d="M487 -33q-191 0 -297 85t-106 237q0 158 105.5 242.5t297.5 84.5h281q-14 123 -72.5 183.5t-173.5 60.5q-153 0 -278 -110l-127 133q73 84 181 129t230 45q224 0 342.5 -126.5t118.5 -361.5v-569h-203l-2 100q-105 -133 -297 -133zM307 301q0 -77 52 -120.5t145 -43.5
q126 0 198 76.5t72 206.5h2v35h-221q-125 0 -186.5 -40t-61.5 -114zM352 1436l107 125l309 -271l-88 -106z" />
    <glyph glyph-name="aacute" unicode="&#xe1;" 
 />
    <glyph glyph-name="acircumflex" unicode="&#xe2;" 
 />
    <glyph glyph-name="atilde" unicode="&#xe3;" 
 />
    <glyph glyph-name="adieresis" unicode="&#xe4;" 
 />
    <glyph glyph-name="aring" unicode="&#xe5;" 
 />
    <glyph glyph-name="ae" unicode="&#xe6;" 
 />
    <glyph glyph-name="ccedilla" unicode="&#xe7;" 
 />
    <glyph glyph-name="egrave" unicode="&#xe8;" horiz-adv-x="1148" 
d="M305 473q11 -139 97 -226t216 -87q83 0 156 49.5t113 130.5l180 -98q-65 -126 -191 -200.5t-276 -74.5q-227 0 -371.5 153t-144.5 392t145.5 392t374.5 153q218 0 352 -158t134 -426h-785zM319 647h541q-27 110 -93 173t-167 63q-106 0 -179.5 -63.5t-101.5 -172.5z
M352 1436l107 125l309 -271l-88 -106z" />
    <glyph glyph-name="eacute" unicode="&#xe9;" 
 />
    <glyph glyph-name="ecircumflex" unicode="&#xea;" 
 />
    <glyph glyph-name="edieresis" unicode="&#xeb;" 
 />
    <glyph glyph-name="igrave" unicode="&#xec;" 
 />
    <glyph glyph-name="iacute" unicode="&#xed;" 
 />
    <glyph glyph-name="icircumflex" unicode="&#xee;" 
 />
    <glyph glyph-name="idieresis" unicode="&#xef;" 
 />
    <glyph glyph-name="eth" unicode="&#xf0;" 
 />
    <glyph glyph-name="ntilde" unicode="&#xf1;" 
 />
    <glyph glyph-name="ograve" unicode="&#xf2;" horiz-adv-x="1204" 
d="M606 -33q-232 0 -377 152.5t-145 392.5t143.5 392.5t374.5 152.5t374.5 -152.5t143.5 -392.5t-143 -392.5t-371 -152.5zM309 512q0 -148 83 -242t214 -94q126 0 207.5 94.5t81.5 241.5q0 149 -82.5 243.5t-210.5 94.5q-129 0 -211 -94.5t-82 -243.5zM352 1436l107 125
l309 -271l-88 -106z" />
    <glyph glyph-name="oacute" unicode="&#xf3;" 
 />
    <glyph glyph-name="ocircumflex" unicode="&#xf4;" 
 />
    <glyph glyph-name="otilde" unicode="&#xf5;" 
 />
    <glyph glyph-name="odieresis" unicode="&#xf6;" 
 />
    <glyph glyph-name="divide" unicode="&#xf7;" 
 />
    <glyph glyph-name="oslash" unicode="&#xf8;" 
 />
    <glyph glyph-name="ugrave" unicode="&#xf9;" horiz-adv-x="1163" 
d="M1028 1024v-1024h-213l-8 137q-104 -170 -309 -170q-189 0 -291 118.5t-101 352.5v586h226v-524q0 -91 16 -154.5t47.5 -98t70.5 -49.5t91 -16q118 -1 182 78.5t64 228.5v535h225zM352 1436l107 125l309 -271l-88 -106z" />
    <glyph glyph-name="uacute" unicode="&#xfa;" 
 />
    <glyph glyph-name="ucircumflex" unicode="&#xfb;" 
 />
    <glyph glyph-name="udieresis" unicode="&#xfc;" 
 />
    <glyph glyph-name="yacute" unicode="&#xfd;" 
 />
    <glyph glyph-name="thorn" unicode="&#xfe;" 
 />
    <glyph glyph-name="ydieresis" unicode="&#xff;" 
 />
    <glyph glyph-name="dotlessi" unicode="&#x131;" 
 />
    <glyph glyph-name="OE" unicode="&#x152;" 
 />
    <glyph glyph-name="oe" unicode="&#x153;" 
 />
    <glyph glyph-name="circumflex" unicode="&#x2c6;" 
 />
    <glyph glyph-name="ring" unicode="&#x2da;" 
 />
    <glyph glyph-name="tilde" unicode="&#x2dc;" 
 />
    <glyph glyph-name="endash" unicode="&#x2013;" horiz-adv-x="1126" 
d="M0 709h1126v-197h-1126v197z" />
    <glyph glyph-name="emdash" unicode="&#x2014;" horiz-adv-x="2252" 
d="M0 709h2253v-197h-2253v197z" />
    <glyph glyph-name="quoteleft" unicode="&#x2018;" horiz-adv-x="417" 
d="M264 975h-239l182 463h178z" />
    <glyph glyph-name="quoteright" unicode="&#x2019;" horiz-adv-x="417" 
d="M152 1425h239l-182 -462h-178z" />
    <glyph glyph-name="quotesinglbase" unicode="&#x201a;" horiz-adv-x="479" 
d="M190 227h240l-182 -463h-178z" />
    <glyph glyph-name="quotedblleft" unicode="&#x201c;" horiz-adv-x="778" 
d="M264 973h-239l182 463h178zM385 973l182 463h178l-120 -463h-240z" />
    <glyph glyph-name="quotedblright" unicode="&#x201d;" horiz-adv-x="778" 
d="M512 1513h240l-183 -462h-178zM31 1051l121 462h239l-182 -462h-178z" />
    <glyph glyph-name="quotedblbase" unicode="&#x201e;" horiz-adv-x="479" 
d="M190 227h240l-182 -463h-178z" />
    <glyph glyph-name="bullet" unicode="&#x2022;" horiz-adv-x="989" 
d="M487 350q-95 0 -163 69t-68 165q0 94 68 161.5t163 67.5t164.5 -67.5t69.5 -161.5q0 -95 -69.5 -164.5t-164.5 -69.5z" />
    <glyph glyph-name="ellipsis" unicode="&#x2026;" horiz-adv-x="1370" 
d="M238 -29q-59 0 -101.5 42t-42.5 100t42.5 100.5t101.5 42.5q58 0 99.5 -42t41.5 -101t-41.5 -100.5t-99.5 -41.5zM543 113q0 59 42.5 101t100.5 42t99.5 -42t41.5 -101t-41.5 -100.5t-99.5 -41.5q-59 0 -101 42t-42 100zM989 113q0 58 42.5 100.5t101.5 42.5
q58 0 99.5 -42t41.5 -101t-41.5 -100.5t-99.5 -41.5q-59 0 -101.5 42t-42.5 100z" />
    <glyph glyph-name="guilsinglleft" unicode="&#x2039;" 
 />
    <glyph glyph-name="guilsinglright" unicode="&#x203a;" 
 />
    <glyph glyph-name="fraction" unicode="&#x2044;" 
 />
    <glyph glyph-name="uni2074" unicode="&#x2074;" horiz-adv-x="1255" 
d="M733 0v311h-647v203l629 920h237v-928h230v-195h-230v-311h-219zM311 506h422v624z" />
    <glyph glyph-name="Euro" unicode="&#x20ac;" 
 />
    <glyph glyph-name="arrowleft" unicode="&#x2190;" horiz-adv-x="1531" 
d="M854 205l-131 -144l-604 549l598 555l133 -143l-328 -311h875v-197h-873z" />
    <glyph glyph-name="arrowright" unicode="&#x2192;" horiz-adv-x="1531" 
d="M678 203l330 309h-873v197h875l-328 311l133 143l598 -555l-604 -549z" />
    <glyph glyph-name="minus" unicode="&#x2212;" 
 />
    <glyph glyph-name="uni2215" unicode="&#x2215;" 
 />
    <glyph glyph-name="a.001" horiz-adv-x="1093" 
d="M487 -33q-191 0 -297 85t-106 237q0 158 106.5 247t296.5 89q164 0 287 -68q-9 148 -73.5 225.5t-178.5 77.5q-147 0 -276 -117l-129 140q73 84 181.5 131t229.5 47q218 0 339.5 -129.5t121.5 -362.5v-569h-203l-2 104q-106 -137 -297 -137zM295 285q0 -67 59.5 -104.5
t165.5 -37.5q121 0 188.5 67t67.5 183q-89 64 -231 64q-119 0 -184.5 -45t-65.5 -127z" />
    <glyph glyph-name="a.002" horiz-adv-x="1232" 
d="M881 0l-9 154q-54 -90 -138 -138.5t-187 -48.5q-209 0 -336 149t-127 396q0 246 127 394.5t336 148.5q102 0 185 -48t138 -135v152h226v-1024h-215zM315 512q1 -148 81.5 -242t205.5 -94q118 0 193 94t75 242t-75 241t-195 93q-125 0 -204.5 -93t-80.5 -241z" />
    <glyph glyph-name="Bowl" horiz-adv-x="1193" 
d="M526 -33q-209 0 -336 149t-127 396q0 246 127 394.5t336 148.5q186 0 300 -148.5t114 -394.5q0 -247 -114 -396t-300 -149zM295 512q1 -148 81.5 -242t205.5 -94q118 0 193 94t75 242t-75 241t-195 93q-125 0 -204.5 -93t-80.5 -241z" />
    <glyph glyph-name="arch" horiz-adv-x="776" 
d="M-6 535q0 246 104.5 384t286.5 138q189 0 290.5 -118.5t100.5 -352.5l-225 -62q0 91 -16 154.5t-47.5 98t-70.5 49.5t-91 16q-118 1 -182 -78.5t-64 -228.5h-86z" />
    </font>
</defs>
</svg>
