<svg width="19" height="18" viewBox="0 0 19 18" fill="none" xmlns="http://www.w3.org/2000/svg">
<path d="M5.50445 7.56375L9.00007 4.06827L12.4975 7.56559L14.5315 5.5316L9.00007 0L3.47046 5.52975L5.50445 7.56375Z" fill="#F3BA2F"/>
<path d="M4.06814 8.99978L2.03418 6.96582L0.00012189 8.99988L2.03408 11.0338L4.06814 8.99978Z" fill="#F3BA2F"/>
<path d="M5.50573 10.4363L9.00135 13.9318L12.4987 10.4346L14.5338 12.4674L14.5328 12.4686L9.00135 18L3.47159 12.4704L3.46875 12.4676L5.50573 10.4363Z" fill="#F3BA2F"/>
<path d="M15.9696 11.0345L18.0037 9.00049L15.9697 6.96653L13.9356 9.00059L15.9696 11.0345Z" fill="#F3BA2F"/>
<path d="M11.0644 8.9988H11.0653L9.00126 6.93481L7.47595 8.46013H7.47581L7.30065 8.63542L6.93912 8.99696L6.93628 8.9998L6.93912 9.00279L9.00126 11.0649L11.0653 9.00094L11.0662 8.9998L11.0644 8.9988Z" fill="#F3BA2F"/>
</svg>
